/* XPM */
static char * seed_xpm[] = {
"24 24 5 1",
" 	c None",
".	c #000000",
"+	c #949194",
"@	c #FFFFFF",
"#	c #DBDBDB",
"                        ",
"                        ",
"                        ",
"            .           ",
"           ...          ",
"          .....         ",
"            .+++        ",
"      ..@@...+..@@.     ",
"      @#####.+####.     ",
"      @#####.+####@     ",
"   .  .###########@ .   ",
"  ..  .###########. ..  ",
" .......#########...... ",
"  ..++++#########+++..++",
"   .+ .###########@ .++ ",
"      .#####.+####.     ",
"      @#####.+####.     ",
"      @..@@..+@..@@     ",
"            .+          ",
"          .....         ",
"           ...          ",
"            .           ",
"                        ",
"                        "};
