/* XPM */
static char * die_xpm[] = {
"24 24 9 1",
" 	c None",
".	c #000000",
"+	c #FCFCFC",
"@	c #E8E8E8",
"#	c #FFFFFF",
"$	c #EAEAEA",
"%	c #747474",
"&	c #3D3D3D",
"*	c #C6C6C6",
"                        ",
"                        ",
"                        ",
"           ...          ",
"          .+@@.         ",
"         .#+@@@.        ",
"        .#+@@@@@.       ",
"       .#+@@@@@@@.      ",
"      .#+@@@.@@@@@.     ",
"      ..#+@@@@@@@..     ",
"      .$.#+@@@@@.%.     ",
"      .$$.#@@@@.%&.     ",
"      .$*$.+@@.%.&.     ",
"      .$.*$...%%%&.     ",
"      .$****.%.%%&.     ",
"      .$****.%%%.&.     ",
"       .**.*.%%%&.      ",
"        .***.%.&.       ",
"         .**.%&.        ",
"          .*.%.         ",
"           ...          ",
"                        ",
"                        ",
"                        "};
