/* XPM */
static char * replace_xpm[] = {
"24 24 4 1",
" 	c None",
".	c #FFFFFF",
"+	c #000000",
"@	c #DBDBDB",
"                        ",
"                        ",
"                        ",
"   .+.+.+.+.+.+.        ",
"   +@@@@@@@@@@@+        ",
"   .@@@@@@@@@@@.        ",
"   +@@@@@@@@@@@+        ",
"   .@@@@@@@@@@@.        ",
"   +@@@+++++++++++++    ",
"   .@@@+@@@@@@@@@@@+    ",
"   +@@@+@@@@@@@@@@@+    ",
"   .@@@+@@@@@@@@@@@+    ",
"   +@@@+@@@@@@@@@@@+    ",
"   .+.++@@@@@@@@@@@+    ",
"       +@@@@@@@@@@@+    ",
"       +@@@@@@@@@@@+    ",
"       +@@@@@@@@@@@+    ",
"       +@@@@@@@@@@@+    ",
"       +++++++++++++    ",
"                        ",
"                        ",
"                        ",
"                        ",
"                        "};
