/* XPM */
static char * subtract_xpm[] = {
"24 24 4 1",
" 	c None",
".	c #000000",
"+	c #DBDBDB",
"@	c #FFFFFF",
"                        ",
"                        ",
"                        ",
"   .............        ",
"   .+++++++++++.        ",
"   .+++++++++++.        ",
"   .+++++++++++.        ",
"   .+++++++++++.        ",
"   .+++.........@.@.    ",
"   .+++.+++++++++++@    ",
"   .+++.+++++++++++.    ",
"   .+++.+++++++++++@    ",
"   .+++.+++++++++++.    ",
"   ....@+++++++++++@    ",
"       .+++++++++++.    ",
"       @+++++++++++@    ",
"       .+++++++++++.    ",
"       @+++++++++++@    ",
"       .@.@.@.@.@.@.    ",
"                        ",
"                        ",
"                        ",
"                        ",
"                        "};
