/* XPM */
static char * zoom2_xpm[] = {
"24 24 5 1",
" 	c None",
".	c #000000",
"+	c #DBDBDB",
"@	c #FFFFFF",
"#	c #DDDDDD",
"                        ",
"                ....    ",
"               .+@@#.   ",
"              .@@  @@.  ",
"             .+@ @@@@+. ",
"             .@ @@@@@@. ",
"             .@@@@@@@@. ",
"      ..@@..@.+@@@@@@+. ",
"      @+++++++.@@@@@@.  ",
"      @++++++...+@@+.   ",
"      .+++++...+....    ",
"      .++++...++++.     ",
"      @+++...+++++.     ",
"      @++...++++++@     ",
"      .+...+++++++@     ",
"      .++.++++++++.     ",
"      @+++++++++++.     ",
"      @..@@..@@..@@     ",
"                        ",
"                        ",
"                        ",
"                        ",
"                        ",
"                        "};
